Source: DVD9 NTSC UNTOUCHED !!!
Original audio from DVD: Dolby AC3, 448kbps, 48kHz, 3/2+LFE ch
Video: 29.970fps (original DVD fps)
I didn't mess around with anything, simple XviD encoding, that's it.
Running time: 1h 56m 44s

+ Unreleased tracks: MP3_320kbps
-----------------------------------
-Courage
-Sagrada
-Don't Give Up (Piano and Bvox Mix-Alternative version)

Info:
------------
Directed by Michael Chapman, Executive Producer Martin Scorsese. This previously unreleased Peter Gabriel concert live from Athens has been fully restored
and pieced together from over 150 reels of original 35mm negatives and remixed in 5.1, this concert is made available for the first time on DVD.

1. This Is The Picture (Excellent Birds) (5:57)
2. San Jacinto (7:27)
3. Shock The Monkey (6:44)
4. Family Snapshot (4:36)
5. Intruder (5:26)
6. Games Without Frontiers (5:29)
7. No Self Control (6:16)
8. Mercy Street (9:15)
9. The Family And The Fishing Net (7:09)
10. Don't Give Up (8:17)
11. Solsbury Hill (5:11)
12. Lay Your Hands On Me (6:15)
13. Sledgehammer (5:07)
14. Here Comes The Flood (2:48)
15. In Your Eyes (10:38)
16. Biko (9:38)

- Peter Gabriel / lead vocals, keyboards
- Tony Levin / bass guitar, stick, vocals
- David Rhodes / guitar, vocals
- Manu Katche / drums, vocals
- David Sancious / keyboards

   General
-----------
      Format : AVI
      Format/Info : Audio Video Interleave
      Format profile : OpenDML
      File size : 2.05 GiB
      Duration : 1h 56mn
      Overall bit rate : 2 518 Kbps
      Writing application : VirtualDubMod 1.5.4.1 (build 2178/release)
      Writing library : VirtualDubMod build 2178/release

   Video
----------
      Format : MPEG-4 Visual
      Format profile : Advanced Simple@L5
      Format settings, BVOP : 1
      Format settings, QPel : No
      Format settings, GMC : No warppoints
      Format settings, Matrix : Custom
      Codec ID : XVID
      Codec ID/Hint : XviD
      Duration : 1h 56mn
      Bit rate : 2 060 Kbps
      Width : 720 pixels
      Height : 400 pixels
      Display aspect ratio : 16:9
      Frame rate : 29.970 fps
      Color space : YUV
      Chroma subsampling : 4:2:0
      Bit depth : 8 bits
      Scan type : Progressive
      Compression mode : Lossy
      Bits/(Pixel*Frame) : 0.239
      Stream size : 1.68 GiB (82%)
      Writing library : XviD 64

   Audio
-----------
      Format : AC-3
      Format/Info : Audio Coding 3
      Mode extension : CM (complete main)
      Codec ID : 2000
      Duration : 1h 56mn
      Bit rate mode : Constant
      Bit rate : 448 Kbps
      Channel(s) : 6 channels
      Channel positions : Front: L C R, Side: L R, LFE
      Sampling rate : 48.0 KHz
      Bit depth : 16 bits
      Compression mode : Lossy
      Stream size : 374 MiB (18%)
      Alignment : Split accross interleaves
      Interleave, duration : 96 ms (2.88 video frames)
      Interleave, preload duration : 96 ms
      Language : English